%TF.GenerationSoftware,KiCad,Pcbnew,8.0.4-8.0.4-0~ubuntu22.04.1*%
%TF.CreationDate,2024-08-06T19:19:49+09:30*%
%TF.ProjectId,apds9306-65_breakout-board,61706473-3933-4303-962d-36355f627265,1.0*%
%TF.SameCoordinates,Original*%
%TF.FileFunction,Legend,Bot*%
%TF.FilePolarity,Positive*%
%FSLAX46Y46*%
G04 Gerber Fmt 4.6, Leading zero omitted, Abs format (unit mm)*
G04 Created by KiCad (PCBNEW 8.0.4-8.0.4-0~ubuntu22.04.1) date 2024-08-06 19:19:49*
%MOMM*%
%LPD*%
G01*
G04 APERTURE LIST*
%ADD10C,0.153000*%
%ADD11C,0.120000*%
G04 APERTURE END LIST*
D10*
X148454104Y-102659719D02*
X147882676Y-102659719D01*
X148168390Y-103659719D02*
X148168390Y-102659719D01*
X147644580Y-102993052D02*
X147454104Y-103659719D01*
X147454104Y-103659719D02*
X147263628Y-103183528D01*
X147263628Y-103183528D02*
X147073152Y-103659719D01*
X147073152Y-103659719D02*
X146882676Y-102993052D01*
X146120771Y-103612100D02*
X146216009Y-103659719D01*
X146216009Y-103659719D02*
X146406485Y-103659719D01*
X146406485Y-103659719D02*
X146501723Y-103612100D01*
X146501723Y-103612100D02*
X146549342Y-103516861D01*
X146549342Y-103516861D02*
X146549342Y-103135909D01*
X146549342Y-103135909D02*
X146501723Y-103040671D01*
X146501723Y-103040671D02*
X146406485Y-102993052D01*
X146406485Y-102993052D02*
X146216009Y-102993052D01*
X146216009Y-102993052D02*
X146120771Y-103040671D01*
X146120771Y-103040671D02*
X146073152Y-103135909D01*
X146073152Y-103135909D02*
X146073152Y-103231147D01*
X146073152Y-103231147D02*
X146549342Y-103326385D01*
X145216009Y-103659719D02*
X145216009Y-103135909D01*
X145216009Y-103135909D02*
X145263628Y-103040671D01*
X145263628Y-103040671D02*
X145358866Y-102993052D01*
X145358866Y-102993052D02*
X145549342Y-102993052D01*
X145549342Y-102993052D02*
X145644580Y-103040671D01*
X145216009Y-103612100D02*
X145311247Y-103659719D01*
X145311247Y-103659719D02*
X145549342Y-103659719D01*
X145549342Y-103659719D02*
X145644580Y-103612100D01*
X145644580Y-103612100D02*
X145692199Y-103516861D01*
X145692199Y-103516861D02*
X145692199Y-103421623D01*
X145692199Y-103421623D02*
X145644580Y-103326385D01*
X145644580Y-103326385D02*
X145549342Y-103278766D01*
X145549342Y-103278766D02*
X145311247Y-103278766D01*
X145311247Y-103278766D02*
X145216009Y-103231147D01*
X144739818Y-103659719D02*
X144739818Y-102659719D01*
X144644580Y-103278766D02*
X144358866Y-103659719D01*
X144358866Y-102993052D02*
X144739818Y-103374004D01*
X143787437Y-103659719D02*
X143882675Y-103612100D01*
X143882675Y-103612100D02*
X143930294Y-103516861D01*
X143930294Y-103516861D02*
X143930294Y-102659719D01*
X143263627Y-103659719D02*
X143358865Y-103612100D01*
X143358865Y-103612100D02*
X143406484Y-103564480D01*
X143406484Y-103564480D02*
X143454103Y-103469242D01*
X143454103Y-103469242D02*
X143454103Y-103183528D01*
X143454103Y-103183528D02*
X143406484Y-103088290D01*
X143406484Y-103088290D02*
X143358865Y-103040671D01*
X143358865Y-103040671D02*
X143263627Y-102993052D01*
X143263627Y-102993052D02*
X143120770Y-102993052D01*
X143120770Y-102993052D02*
X143025532Y-103040671D01*
X143025532Y-103040671D02*
X142977913Y-103088290D01*
X142977913Y-103088290D02*
X142930294Y-103183528D01*
X142930294Y-103183528D02*
X142930294Y-103469242D01*
X142930294Y-103469242D02*
X142977913Y-103564480D01*
X142977913Y-103564480D02*
X143025532Y-103612100D01*
X143025532Y-103612100D02*
X143120770Y-103659719D01*
X143120770Y-103659719D02*
X143263627Y-103659719D01*
X142073151Y-102993052D02*
X142073151Y-103802576D01*
X142073151Y-103802576D02*
X142120770Y-103897814D01*
X142120770Y-103897814D02*
X142168389Y-103945433D01*
X142168389Y-103945433D02*
X142263627Y-103993052D01*
X142263627Y-103993052D02*
X142406484Y-103993052D01*
X142406484Y-103993052D02*
X142501722Y-103945433D01*
X142073151Y-103612100D02*
X142168389Y-103659719D01*
X142168389Y-103659719D02*
X142358865Y-103659719D01*
X142358865Y-103659719D02*
X142454103Y-103612100D01*
X142454103Y-103612100D02*
X142501722Y-103564480D01*
X142501722Y-103564480D02*
X142549341Y-103469242D01*
X142549341Y-103469242D02*
X142549341Y-103183528D01*
X142549341Y-103183528D02*
X142501722Y-103088290D01*
X142501722Y-103088290D02*
X142454103Y-103040671D01*
X142454103Y-103040671D02*
X142358865Y-102993052D01*
X142358865Y-102993052D02*
X142168389Y-102993052D01*
X142168389Y-102993052D02*
X142073151Y-103040671D01*
X141596960Y-103659719D02*
X141596960Y-102993052D01*
X141596960Y-102659719D02*
X141644579Y-102707338D01*
X141644579Y-102707338D02*
X141596960Y-102754957D01*
X141596960Y-102754957D02*
X141549341Y-102707338D01*
X141549341Y-102707338D02*
X141596960Y-102659719D01*
X141596960Y-102659719D02*
X141596960Y-102754957D01*
X140692199Y-103612100D02*
X140787437Y-103659719D01*
X140787437Y-103659719D02*
X140977913Y-103659719D01*
X140977913Y-103659719D02*
X141073151Y-103612100D01*
X141073151Y-103612100D02*
X141120770Y-103564480D01*
X141120770Y-103564480D02*
X141168389Y-103469242D01*
X141168389Y-103469242D02*
X141168389Y-103183528D01*
X141168389Y-103183528D02*
X141120770Y-103088290D01*
X141120770Y-103088290D02*
X141073151Y-103040671D01*
X141073151Y-103040671D02*
X140977913Y-102993052D01*
X140977913Y-102993052D02*
X140787437Y-102993052D01*
X140787437Y-102993052D02*
X140692199Y-103040671D01*
X148454104Y-104602996D02*
X148073152Y-104602996D01*
X148311247Y-104269663D02*
X148311247Y-105126805D01*
X148311247Y-105126805D02*
X148263628Y-105222044D01*
X148263628Y-105222044D02*
X148168390Y-105269663D01*
X148168390Y-105269663D02*
X148073152Y-105269663D01*
X147835056Y-104602996D02*
X147644580Y-105269663D01*
X147644580Y-105269663D02*
X147454104Y-104793472D01*
X147454104Y-104793472D02*
X147263628Y-105269663D01*
X147263628Y-105269663D02*
X147073152Y-104602996D01*
X146311247Y-105222044D02*
X146406485Y-105269663D01*
X146406485Y-105269663D02*
X146596961Y-105269663D01*
X146596961Y-105269663D02*
X146692199Y-105222044D01*
X146692199Y-105222044D02*
X146739818Y-105126805D01*
X146739818Y-105126805D02*
X146739818Y-104745853D01*
X146739818Y-104745853D02*
X146692199Y-104650615D01*
X146692199Y-104650615D02*
X146596961Y-104602996D01*
X146596961Y-104602996D02*
X146406485Y-104602996D01*
X146406485Y-104602996D02*
X146311247Y-104650615D01*
X146311247Y-104650615D02*
X146263628Y-104745853D01*
X146263628Y-104745853D02*
X146263628Y-104841091D01*
X146263628Y-104841091D02*
X146739818Y-104936329D01*
X145406485Y-105269663D02*
X145406485Y-104745853D01*
X145406485Y-104745853D02*
X145454104Y-104650615D01*
X145454104Y-104650615D02*
X145549342Y-104602996D01*
X145549342Y-104602996D02*
X145739818Y-104602996D01*
X145739818Y-104602996D02*
X145835056Y-104650615D01*
X145406485Y-105222044D02*
X145501723Y-105269663D01*
X145501723Y-105269663D02*
X145739818Y-105269663D01*
X145739818Y-105269663D02*
X145835056Y-105222044D01*
X145835056Y-105222044D02*
X145882675Y-105126805D01*
X145882675Y-105126805D02*
X145882675Y-105031567D01*
X145882675Y-105031567D02*
X145835056Y-104936329D01*
X145835056Y-104936329D02*
X145739818Y-104888710D01*
X145739818Y-104888710D02*
X145501723Y-104888710D01*
X145501723Y-104888710D02*
X145406485Y-104841091D01*
X144930294Y-105269663D02*
X144930294Y-104269663D01*
X144835056Y-104888710D02*
X144549342Y-105269663D01*
X144549342Y-104602996D02*
X144930294Y-104983948D01*
X143977913Y-105269663D02*
X144073151Y-105222044D01*
X144073151Y-105222044D02*
X144120770Y-105126805D01*
X144120770Y-105126805D02*
X144120770Y-104269663D01*
X143454103Y-105269663D02*
X143549341Y-105222044D01*
X143549341Y-105222044D02*
X143596960Y-105174424D01*
X143596960Y-105174424D02*
X143644579Y-105079186D01*
X143644579Y-105079186D02*
X143644579Y-104793472D01*
X143644579Y-104793472D02*
X143596960Y-104698234D01*
X143596960Y-104698234D02*
X143549341Y-104650615D01*
X143549341Y-104650615D02*
X143454103Y-104602996D01*
X143454103Y-104602996D02*
X143311246Y-104602996D01*
X143311246Y-104602996D02*
X143216008Y-104650615D01*
X143216008Y-104650615D02*
X143168389Y-104698234D01*
X143168389Y-104698234D02*
X143120770Y-104793472D01*
X143120770Y-104793472D02*
X143120770Y-105079186D01*
X143120770Y-105079186D02*
X143168389Y-105174424D01*
X143168389Y-105174424D02*
X143216008Y-105222044D01*
X143216008Y-105222044D02*
X143311246Y-105269663D01*
X143311246Y-105269663D02*
X143454103Y-105269663D01*
X142263627Y-104602996D02*
X142263627Y-105412520D01*
X142263627Y-105412520D02*
X142311246Y-105507758D01*
X142311246Y-105507758D02*
X142358865Y-105555377D01*
X142358865Y-105555377D02*
X142454103Y-105602996D01*
X142454103Y-105602996D02*
X142596960Y-105602996D01*
X142596960Y-105602996D02*
X142692198Y-105555377D01*
X142263627Y-105222044D02*
X142358865Y-105269663D01*
X142358865Y-105269663D02*
X142549341Y-105269663D01*
X142549341Y-105269663D02*
X142644579Y-105222044D01*
X142644579Y-105222044D02*
X142692198Y-105174424D01*
X142692198Y-105174424D02*
X142739817Y-105079186D01*
X142739817Y-105079186D02*
X142739817Y-104793472D01*
X142739817Y-104793472D02*
X142692198Y-104698234D01*
X142692198Y-104698234D02*
X142644579Y-104650615D01*
X142644579Y-104650615D02*
X142549341Y-104602996D01*
X142549341Y-104602996D02*
X142358865Y-104602996D01*
X142358865Y-104602996D02*
X142263627Y-104650615D01*
X141787436Y-105269663D02*
X141787436Y-104602996D01*
X141787436Y-104269663D02*
X141835055Y-104317282D01*
X141835055Y-104317282D02*
X141787436Y-104364901D01*
X141787436Y-104364901D02*
X141739817Y-104317282D01*
X141739817Y-104317282D02*
X141787436Y-104269663D01*
X141787436Y-104269663D02*
X141787436Y-104364901D01*
X140882675Y-105222044D02*
X140977913Y-105269663D01*
X140977913Y-105269663D02*
X141168389Y-105269663D01*
X141168389Y-105269663D02*
X141263627Y-105222044D01*
X141263627Y-105222044D02*
X141311246Y-105174424D01*
X141311246Y-105174424D02*
X141358865Y-105079186D01*
X141358865Y-105079186D02*
X141358865Y-104793472D01*
X141358865Y-104793472D02*
X141311246Y-104698234D01*
X141311246Y-104698234D02*
X141263627Y-104650615D01*
X141263627Y-104650615D02*
X141168389Y-104602996D01*
X141168389Y-104602996D02*
X140977913Y-104602996D01*
X140977913Y-104602996D02*
X140882675Y-104650615D01*
X140454103Y-105174424D02*
X140406484Y-105222044D01*
X140406484Y-105222044D02*
X140454103Y-105269663D01*
X140454103Y-105269663D02*
X140501722Y-105222044D01*
X140501722Y-105222044D02*
X140454103Y-105174424D01*
X140454103Y-105174424D02*
X140454103Y-105269663D01*
X139549342Y-105222044D02*
X139644580Y-105269663D01*
X139644580Y-105269663D02*
X139835056Y-105269663D01*
X139835056Y-105269663D02*
X139930294Y-105222044D01*
X139930294Y-105222044D02*
X139977913Y-105174424D01*
X139977913Y-105174424D02*
X140025532Y-105079186D01*
X140025532Y-105079186D02*
X140025532Y-104793472D01*
X140025532Y-104793472D02*
X139977913Y-104698234D01*
X139977913Y-104698234D02*
X139930294Y-104650615D01*
X139930294Y-104650615D02*
X139835056Y-104602996D01*
X139835056Y-104602996D02*
X139644580Y-104602996D01*
X139644580Y-104602996D02*
X139549342Y-104650615D01*
X138977913Y-105269663D02*
X139073151Y-105222044D01*
X139073151Y-105222044D02*
X139120770Y-105174424D01*
X139120770Y-105174424D02*
X139168389Y-105079186D01*
X139168389Y-105079186D02*
X139168389Y-104793472D01*
X139168389Y-104793472D02*
X139120770Y-104698234D01*
X139120770Y-104698234D02*
X139073151Y-104650615D01*
X139073151Y-104650615D02*
X138977913Y-104602996D01*
X138977913Y-104602996D02*
X138835056Y-104602996D01*
X138835056Y-104602996D02*
X138739818Y-104650615D01*
X138739818Y-104650615D02*
X138692199Y-104698234D01*
X138692199Y-104698234D02*
X138644580Y-104793472D01*
X138644580Y-104793472D02*
X138644580Y-105079186D01*
X138644580Y-105079186D02*
X138692199Y-105174424D01*
X138692199Y-105174424D02*
X138739818Y-105222044D01*
X138739818Y-105222044D02*
X138835056Y-105269663D01*
X138835056Y-105269663D02*
X138977913Y-105269663D01*
X138216008Y-105269663D02*
X138216008Y-104602996D01*
X138216008Y-104698234D02*
X138168389Y-104650615D01*
X138168389Y-104650615D02*
X138073151Y-104602996D01*
X138073151Y-104602996D02*
X137930294Y-104602996D01*
X137930294Y-104602996D02*
X137835056Y-104650615D01*
X137835056Y-104650615D02*
X137787437Y-104745853D01*
X137787437Y-104745853D02*
X137787437Y-105269663D01*
X137787437Y-104745853D02*
X137739818Y-104650615D01*
X137739818Y-104650615D02*
X137644580Y-104602996D01*
X137644580Y-104602996D02*
X137501723Y-104602996D01*
X137501723Y-104602996D02*
X137406484Y-104650615D01*
X137406484Y-104650615D02*
X137358865Y-104745853D01*
X137358865Y-104745853D02*
X137358865Y-105269663D01*
X142382044Y-110291133D02*
X142429663Y-110433990D01*
X142429663Y-110433990D02*
X142429663Y-110672085D01*
X142429663Y-110672085D02*
X142382044Y-110767323D01*
X142382044Y-110767323D02*
X142334424Y-110814942D01*
X142334424Y-110814942D02*
X142239186Y-110862561D01*
X142239186Y-110862561D02*
X142143948Y-110862561D01*
X142143948Y-110862561D02*
X142048710Y-110814942D01*
X142048710Y-110814942D02*
X142001091Y-110767323D01*
X142001091Y-110767323D02*
X141953472Y-110672085D01*
X141953472Y-110672085D02*
X141905853Y-110481609D01*
X141905853Y-110481609D02*
X141858234Y-110386371D01*
X141858234Y-110386371D02*
X141810615Y-110338752D01*
X141810615Y-110338752D02*
X141715377Y-110291133D01*
X141715377Y-110291133D02*
X141620139Y-110291133D01*
X141620139Y-110291133D02*
X141524901Y-110338752D01*
X141524901Y-110338752D02*
X141477282Y-110386371D01*
X141477282Y-110386371D02*
X141429663Y-110481609D01*
X141429663Y-110481609D02*
X141429663Y-110719704D01*
X141429663Y-110719704D02*
X141477282Y-110862561D01*
X142334424Y-111862561D02*
X142382044Y-111814942D01*
X142382044Y-111814942D02*
X142429663Y-111672085D01*
X142429663Y-111672085D02*
X142429663Y-111576847D01*
X142429663Y-111576847D02*
X142382044Y-111433990D01*
X142382044Y-111433990D02*
X142286805Y-111338752D01*
X142286805Y-111338752D02*
X142191567Y-111291133D01*
X142191567Y-111291133D02*
X142001091Y-111243514D01*
X142001091Y-111243514D02*
X141858234Y-111243514D01*
X141858234Y-111243514D02*
X141667758Y-111291133D01*
X141667758Y-111291133D02*
X141572520Y-111338752D01*
X141572520Y-111338752D02*
X141477282Y-111433990D01*
X141477282Y-111433990D02*
X141429663Y-111576847D01*
X141429663Y-111576847D02*
X141429663Y-111672085D01*
X141429663Y-111672085D02*
X141477282Y-111814942D01*
X141477282Y-111814942D02*
X141524901Y-111862561D01*
X142429663Y-112767323D02*
X142429663Y-112291133D01*
X142429663Y-112291133D02*
X141429663Y-112291133D01*
X145002044Y-110291133D02*
X145049663Y-110433990D01*
X145049663Y-110433990D02*
X145049663Y-110672085D01*
X145049663Y-110672085D02*
X145002044Y-110767323D01*
X145002044Y-110767323D02*
X144954424Y-110814942D01*
X144954424Y-110814942D02*
X144859186Y-110862561D01*
X144859186Y-110862561D02*
X144763948Y-110862561D01*
X144763948Y-110862561D02*
X144668710Y-110814942D01*
X144668710Y-110814942D02*
X144621091Y-110767323D01*
X144621091Y-110767323D02*
X144573472Y-110672085D01*
X144573472Y-110672085D02*
X144525853Y-110481609D01*
X144525853Y-110481609D02*
X144478234Y-110386371D01*
X144478234Y-110386371D02*
X144430615Y-110338752D01*
X144430615Y-110338752D02*
X144335377Y-110291133D01*
X144335377Y-110291133D02*
X144240139Y-110291133D01*
X144240139Y-110291133D02*
X144144901Y-110338752D01*
X144144901Y-110338752D02*
X144097282Y-110386371D01*
X144097282Y-110386371D02*
X144049663Y-110481609D01*
X144049663Y-110481609D02*
X144049663Y-110719704D01*
X144049663Y-110719704D02*
X144097282Y-110862561D01*
X145049663Y-111291133D02*
X144049663Y-111291133D01*
X144049663Y-111291133D02*
X144049663Y-111529228D01*
X144049663Y-111529228D02*
X144097282Y-111672085D01*
X144097282Y-111672085D02*
X144192520Y-111767323D01*
X144192520Y-111767323D02*
X144287758Y-111814942D01*
X144287758Y-111814942D02*
X144478234Y-111862561D01*
X144478234Y-111862561D02*
X144621091Y-111862561D01*
X144621091Y-111862561D02*
X144811567Y-111814942D01*
X144811567Y-111814942D02*
X144906805Y-111767323D01*
X144906805Y-111767323D02*
X145002044Y-111672085D01*
X145002044Y-111672085D02*
X145049663Y-111529228D01*
X145049663Y-111529228D02*
X145049663Y-111291133D01*
X144763948Y-112243514D02*
X144763948Y-112719704D01*
X145049663Y-112148276D02*
X144049663Y-112481609D01*
X144049663Y-112481609D02*
X145049663Y-112814942D01*
X138939663Y-110243514D02*
X138939663Y-110862561D01*
X138939663Y-110862561D02*
X139320615Y-110529228D01*
X139320615Y-110529228D02*
X139320615Y-110672085D01*
X139320615Y-110672085D02*
X139368234Y-110767323D01*
X139368234Y-110767323D02*
X139415853Y-110814942D01*
X139415853Y-110814942D02*
X139511091Y-110862561D01*
X139511091Y-110862561D02*
X139749186Y-110862561D01*
X139749186Y-110862561D02*
X139844424Y-110814942D01*
X139844424Y-110814942D02*
X139892044Y-110767323D01*
X139892044Y-110767323D02*
X139939663Y-110672085D01*
X139939663Y-110672085D02*
X139939663Y-110386371D01*
X139939663Y-110386371D02*
X139892044Y-110291133D01*
X139892044Y-110291133D02*
X139844424Y-110243514D01*
X139844424Y-111291133D02*
X139892044Y-111338752D01*
X139892044Y-111338752D02*
X139939663Y-111291133D01*
X139939663Y-111291133D02*
X139892044Y-111243514D01*
X139892044Y-111243514D02*
X139844424Y-111291133D01*
X139844424Y-111291133D02*
X139939663Y-111291133D01*
X138939663Y-111672085D02*
X138939663Y-112291132D01*
X138939663Y-112291132D02*
X139320615Y-111957799D01*
X139320615Y-111957799D02*
X139320615Y-112100656D01*
X139320615Y-112100656D02*
X139368234Y-112195894D01*
X139368234Y-112195894D02*
X139415853Y-112243513D01*
X139415853Y-112243513D02*
X139511091Y-112291132D01*
X139511091Y-112291132D02*
X139749186Y-112291132D01*
X139749186Y-112291132D02*
X139844424Y-112243513D01*
X139844424Y-112243513D02*
X139892044Y-112195894D01*
X139892044Y-112195894D02*
X139939663Y-112100656D01*
X139939663Y-112100656D02*
X139939663Y-111814942D01*
X139939663Y-111814942D02*
X139892044Y-111719704D01*
X139892044Y-111719704D02*
X139844424Y-111672085D01*
X138939663Y-112576847D02*
X139939663Y-112910180D01*
X139939663Y-112910180D02*
X138939663Y-113243513D01*
X136717282Y-110862561D02*
X136669663Y-110767323D01*
X136669663Y-110767323D02*
X136669663Y-110624466D01*
X136669663Y-110624466D02*
X136717282Y-110481609D01*
X136717282Y-110481609D02*
X136812520Y-110386371D01*
X136812520Y-110386371D02*
X136907758Y-110338752D01*
X136907758Y-110338752D02*
X137098234Y-110291133D01*
X137098234Y-110291133D02*
X137241091Y-110291133D01*
X137241091Y-110291133D02*
X137431567Y-110338752D01*
X137431567Y-110338752D02*
X137526805Y-110386371D01*
X137526805Y-110386371D02*
X137622044Y-110481609D01*
X137622044Y-110481609D02*
X137669663Y-110624466D01*
X137669663Y-110624466D02*
X137669663Y-110719704D01*
X137669663Y-110719704D02*
X137622044Y-110862561D01*
X137622044Y-110862561D02*
X137574424Y-110910180D01*
X137574424Y-110910180D02*
X137241091Y-110910180D01*
X137241091Y-110910180D02*
X137241091Y-110719704D01*
X137669663Y-111338752D02*
X136669663Y-111338752D01*
X136669663Y-111338752D02*
X137669663Y-111910180D01*
X137669663Y-111910180D02*
X136669663Y-111910180D01*
X137669663Y-112386371D02*
X136669663Y-112386371D01*
X136669663Y-112386371D02*
X136669663Y-112624466D01*
X136669663Y-112624466D02*
X136717282Y-112767323D01*
X136717282Y-112767323D02*
X136812520Y-112862561D01*
X136812520Y-112862561D02*
X136907758Y-112910180D01*
X136907758Y-112910180D02*
X137098234Y-112957799D01*
X137098234Y-112957799D02*
X137241091Y-112957799D01*
X137241091Y-112957799D02*
X137431567Y-112910180D01*
X137431567Y-112910180D02*
X137526805Y-112862561D01*
X137526805Y-112862561D02*
X137622044Y-112767323D01*
X137622044Y-112767323D02*
X137669663Y-112624466D01*
X137669663Y-112624466D02*
X137669663Y-112386371D01*
X147869663Y-110338752D02*
X146869663Y-110338752D01*
X147869663Y-110814942D02*
X146869663Y-110814942D01*
X146869663Y-110814942D02*
X147869663Y-111386370D01*
X147869663Y-111386370D02*
X146869663Y-111386370D01*
X146869663Y-111719704D02*
X146869663Y-112291132D01*
X147869663Y-112005418D02*
X146869663Y-112005418D01*
X146592044Y-110200657D02*
X146592044Y-112286371D01*
X142483333Y-107674663D02*
X142483333Y-108388948D01*
X142483333Y-108388948D02*
X142530952Y-108531805D01*
X142530952Y-108531805D02*
X142626190Y-108627044D01*
X142626190Y-108627044D02*
X142769047Y-108674663D01*
X142769047Y-108674663D02*
X142864285Y-108674663D01*
X141483333Y-108674663D02*
X142054761Y-108674663D01*
X141769047Y-108674663D02*
X141769047Y-107674663D01*
X141769047Y-107674663D02*
X141864285Y-107817520D01*
X141864285Y-107817520D02*
X141959523Y-107912758D01*
X141959523Y-107912758D02*
X142054761Y-107960377D01*
D11*
%TO.C,J1*%
X147540000Y-119280000D02*
X147540000Y-125280000D01*
X147540000Y-125280000D02*
X146780000Y-125280000D01*
X145000000Y-119280000D02*
X145000000Y-125280000D01*
X145000000Y-125280000D02*
X144240000Y-125280000D01*
X142460000Y-119280000D02*
X142460000Y-125280000D01*
X142460000Y-125280000D02*
X141700000Y-125280000D01*
X139920000Y-119280000D02*
X139920000Y-125280000D01*
X139920000Y-125280000D02*
X139160000Y-125280000D01*
X137380000Y-119280000D02*
X137380000Y-125280000D01*
X137380000Y-125280000D02*
X136620000Y-125280000D01*
X135670000Y-119280000D02*
X148490000Y-119280000D01*
X146780000Y-125280000D02*
X146780000Y-119280000D01*
X144240000Y-125280000D02*
X144240000Y-119280000D01*
X141700000Y-125280000D02*
X141700000Y-119280000D01*
X139160000Y-125280000D02*
X139160000Y-119280000D01*
X137280000Y-125280000D02*
X137280000Y-119280000D01*
X137160000Y-125280000D02*
X137160000Y-119280000D01*
X137040000Y-125280000D02*
X137040000Y-119280000D01*
X136920000Y-125280000D02*
X136920000Y-119280000D01*
X136800000Y-125280000D02*
X136800000Y-119280000D01*
X136680000Y-125280000D02*
X136680000Y-119280000D01*
X136620000Y-125280000D02*
X136620000Y-119280000D01*
X135670000Y-116620000D02*
X135670000Y-119280000D01*
X148490000Y-119280000D02*
X148490000Y-116620000D01*
X145890000Y-119280000D02*
X145890000Y-116620000D01*
X143350000Y-119280000D02*
X143350000Y-116620000D01*
X140810000Y-119280000D02*
X140810000Y-116620000D01*
X138270000Y-119280000D02*
X138270000Y-116620000D01*
X148490000Y-116620000D02*
X135670000Y-116620000D01*
X137380000Y-116620000D02*
X137380000Y-116290000D01*
X136620000Y-116620000D02*
X136620000Y-116290000D01*
X147540000Y-116620000D02*
X147540000Y-116222929D01*
X146780000Y-116620000D02*
X146780000Y-116222929D01*
X145000000Y-116620000D02*
X145000000Y-116222929D01*
X144240000Y-116620000D02*
X144240000Y-116222929D01*
X142460000Y-116620000D02*
X142460000Y-116222929D01*
X141700000Y-116620000D02*
X141700000Y-116222929D01*
X139920000Y-116620000D02*
X139920000Y-116222929D01*
X139160000Y-116620000D02*
X139160000Y-116222929D01*
X135730000Y-113910000D02*
X137000000Y-113910000D01*
X135730000Y-115180000D02*
X135730000Y-113910000D01*
%TD*%
M02*
