%TF.GenerationSoftware,KiCad,Pcbnew,8.0.4-8.0.4-0~ubuntu22.04.1*%
%TF.CreationDate,2024-08-06T19:19:49+09:30*%
%TF.ProjectId,apds9306-65_breakout-board,61706473-3933-4303-962d-36355f627265,1.0*%
%TF.SameCoordinates,Original*%
%TF.FileFunction,Legend,Top*%
%TF.FilePolarity,Positive*%
%FSLAX46Y46*%
G04 Gerber Fmt 4.6, Leading zero omitted, Abs format (unit mm)*
G04 Created by KiCad (PCBNEW 8.0.4-8.0.4-0~ubuntu22.04.1) date 2024-08-06 19:19:49*
%MOMM*%
%LPD*%
G01*
G04 APERTURE LIST*
%ADD10C,0.153000*%
%ADD11C,0.120000*%
G04 APERTURE END LIST*
D10*
X136341133Y-101613948D02*
X136817323Y-101613948D01*
X136245895Y-101899663D02*
X136579228Y-100899663D01*
X136579228Y-100899663D02*
X136912561Y-101899663D01*
X137245895Y-101899663D02*
X137245895Y-100899663D01*
X137245895Y-100899663D02*
X137626847Y-100899663D01*
X137626847Y-100899663D02*
X137722085Y-100947282D01*
X137722085Y-100947282D02*
X137769704Y-100994901D01*
X137769704Y-100994901D02*
X137817323Y-101090139D01*
X137817323Y-101090139D02*
X137817323Y-101232996D01*
X137817323Y-101232996D02*
X137769704Y-101328234D01*
X137769704Y-101328234D02*
X137722085Y-101375853D01*
X137722085Y-101375853D02*
X137626847Y-101423472D01*
X137626847Y-101423472D02*
X137245895Y-101423472D01*
X138245895Y-101899663D02*
X138245895Y-100899663D01*
X138245895Y-100899663D02*
X138483990Y-100899663D01*
X138483990Y-100899663D02*
X138626847Y-100947282D01*
X138626847Y-100947282D02*
X138722085Y-101042520D01*
X138722085Y-101042520D02*
X138769704Y-101137758D01*
X138769704Y-101137758D02*
X138817323Y-101328234D01*
X138817323Y-101328234D02*
X138817323Y-101471091D01*
X138817323Y-101471091D02*
X138769704Y-101661567D01*
X138769704Y-101661567D02*
X138722085Y-101756805D01*
X138722085Y-101756805D02*
X138626847Y-101852044D01*
X138626847Y-101852044D02*
X138483990Y-101899663D01*
X138483990Y-101899663D02*
X138245895Y-101899663D01*
X139198276Y-101852044D02*
X139341133Y-101899663D01*
X139341133Y-101899663D02*
X139579228Y-101899663D01*
X139579228Y-101899663D02*
X139674466Y-101852044D01*
X139674466Y-101852044D02*
X139722085Y-101804424D01*
X139722085Y-101804424D02*
X139769704Y-101709186D01*
X139769704Y-101709186D02*
X139769704Y-101613948D01*
X139769704Y-101613948D02*
X139722085Y-101518710D01*
X139722085Y-101518710D02*
X139674466Y-101471091D01*
X139674466Y-101471091D02*
X139579228Y-101423472D01*
X139579228Y-101423472D02*
X139388752Y-101375853D01*
X139388752Y-101375853D02*
X139293514Y-101328234D01*
X139293514Y-101328234D02*
X139245895Y-101280615D01*
X139245895Y-101280615D02*
X139198276Y-101185377D01*
X139198276Y-101185377D02*
X139198276Y-101090139D01*
X139198276Y-101090139D02*
X139245895Y-100994901D01*
X139245895Y-100994901D02*
X139293514Y-100947282D01*
X139293514Y-100947282D02*
X139388752Y-100899663D01*
X139388752Y-100899663D02*
X139626847Y-100899663D01*
X139626847Y-100899663D02*
X139769704Y-100947282D01*
X140198276Y-101518710D02*
X140960181Y-101518710D01*
X141483990Y-101899663D02*
X141674466Y-101899663D01*
X141674466Y-101899663D02*
X141769704Y-101852044D01*
X141769704Y-101852044D02*
X141817323Y-101804424D01*
X141817323Y-101804424D02*
X141912561Y-101661567D01*
X141912561Y-101661567D02*
X141960180Y-101471091D01*
X141960180Y-101471091D02*
X141960180Y-101090139D01*
X141960180Y-101090139D02*
X141912561Y-100994901D01*
X141912561Y-100994901D02*
X141864942Y-100947282D01*
X141864942Y-100947282D02*
X141769704Y-100899663D01*
X141769704Y-100899663D02*
X141579228Y-100899663D01*
X141579228Y-100899663D02*
X141483990Y-100947282D01*
X141483990Y-100947282D02*
X141436371Y-100994901D01*
X141436371Y-100994901D02*
X141388752Y-101090139D01*
X141388752Y-101090139D02*
X141388752Y-101328234D01*
X141388752Y-101328234D02*
X141436371Y-101423472D01*
X141436371Y-101423472D02*
X141483990Y-101471091D01*
X141483990Y-101471091D02*
X141579228Y-101518710D01*
X141579228Y-101518710D02*
X141769704Y-101518710D01*
X141769704Y-101518710D02*
X141864942Y-101471091D01*
X141864942Y-101471091D02*
X141912561Y-101423472D01*
X141912561Y-101423472D02*
X141960180Y-101328234D01*
X142293514Y-100899663D02*
X142912561Y-100899663D01*
X142912561Y-100899663D02*
X142579228Y-101280615D01*
X142579228Y-101280615D02*
X142722085Y-101280615D01*
X142722085Y-101280615D02*
X142817323Y-101328234D01*
X142817323Y-101328234D02*
X142864942Y-101375853D01*
X142864942Y-101375853D02*
X142912561Y-101471091D01*
X142912561Y-101471091D02*
X142912561Y-101709186D01*
X142912561Y-101709186D02*
X142864942Y-101804424D01*
X142864942Y-101804424D02*
X142817323Y-101852044D01*
X142817323Y-101852044D02*
X142722085Y-101899663D01*
X142722085Y-101899663D02*
X142436371Y-101899663D01*
X142436371Y-101899663D02*
X142341133Y-101852044D01*
X142341133Y-101852044D02*
X142293514Y-101804424D01*
X143531609Y-100899663D02*
X143626847Y-100899663D01*
X143626847Y-100899663D02*
X143722085Y-100947282D01*
X143722085Y-100947282D02*
X143769704Y-100994901D01*
X143769704Y-100994901D02*
X143817323Y-101090139D01*
X143817323Y-101090139D02*
X143864942Y-101280615D01*
X143864942Y-101280615D02*
X143864942Y-101518710D01*
X143864942Y-101518710D02*
X143817323Y-101709186D01*
X143817323Y-101709186D02*
X143769704Y-101804424D01*
X143769704Y-101804424D02*
X143722085Y-101852044D01*
X143722085Y-101852044D02*
X143626847Y-101899663D01*
X143626847Y-101899663D02*
X143531609Y-101899663D01*
X143531609Y-101899663D02*
X143436371Y-101852044D01*
X143436371Y-101852044D02*
X143388752Y-101804424D01*
X143388752Y-101804424D02*
X143341133Y-101709186D01*
X143341133Y-101709186D02*
X143293514Y-101518710D01*
X143293514Y-101518710D02*
X143293514Y-101280615D01*
X143293514Y-101280615D02*
X143341133Y-101090139D01*
X143341133Y-101090139D02*
X143388752Y-100994901D01*
X143388752Y-100994901D02*
X143436371Y-100947282D01*
X143436371Y-100947282D02*
X143531609Y-100899663D01*
X144722085Y-100899663D02*
X144531609Y-100899663D01*
X144531609Y-100899663D02*
X144436371Y-100947282D01*
X144436371Y-100947282D02*
X144388752Y-100994901D01*
X144388752Y-100994901D02*
X144293514Y-101137758D01*
X144293514Y-101137758D02*
X144245895Y-101328234D01*
X144245895Y-101328234D02*
X144245895Y-101709186D01*
X144245895Y-101709186D02*
X144293514Y-101804424D01*
X144293514Y-101804424D02*
X144341133Y-101852044D01*
X144341133Y-101852044D02*
X144436371Y-101899663D01*
X144436371Y-101899663D02*
X144626847Y-101899663D01*
X144626847Y-101899663D02*
X144722085Y-101852044D01*
X144722085Y-101852044D02*
X144769704Y-101804424D01*
X144769704Y-101804424D02*
X144817323Y-101709186D01*
X144817323Y-101709186D02*
X144817323Y-101471091D01*
X144817323Y-101471091D02*
X144769704Y-101375853D01*
X144769704Y-101375853D02*
X144722085Y-101328234D01*
X144722085Y-101328234D02*
X144626847Y-101280615D01*
X144626847Y-101280615D02*
X144436371Y-101280615D01*
X144436371Y-101280615D02*
X144341133Y-101328234D01*
X144341133Y-101328234D02*
X144293514Y-101375853D01*
X144293514Y-101375853D02*
X144245895Y-101471091D01*
X145245895Y-101518710D02*
X146007800Y-101518710D01*
X146912561Y-100899663D02*
X146722085Y-100899663D01*
X146722085Y-100899663D02*
X146626847Y-100947282D01*
X146626847Y-100947282D02*
X146579228Y-100994901D01*
X146579228Y-100994901D02*
X146483990Y-101137758D01*
X146483990Y-101137758D02*
X146436371Y-101328234D01*
X146436371Y-101328234D02*
X146436371Y-101709186D01*
X146436371Y-101709186D02*
X146483990Y-101804424D01*
X146483990Y-101804424D02*
X146531609Y-101852044D01*
X146531609Y-101852044D02*
X146626847Y-101899663D01*
X146626847Y-101899663D02*
X146817323Y-101899663D01*
X146817323Y-101899663D02*
X146912561Y-101852044D01*
X146912561Y-101852044D02*
X146960180Y-101804424D01*
X146960180Y-101804424D02*
X147007799Y-101709186D01*
X147007799Y-101709186D02*
X147007799Y-101471091D01*
X147007799Y-101471091D02*
X146960180Y-101375853D01*
X146960180Y-101375853D02*
X146912561Y-101328234D01*
X146912561Y-101328234D02*
X146817323Y-101280615D01*
X146817323Y-101280615D02*
X146626847Y-101280615D01*
X146626847Y-101280615D02*
X146531609Y-101328234D01*
X146531609Y-101328234D02*
X146483990Y-101375853D01*
X146483990Y-101375853D02*
X146436371Y-101471091D01*
X147912561Y-100899663D02*
X147436371Y-100899663D01*
X147436371Y-100899663D02*
X147388752Y-101375853D01*
X147388752Y-101375853D02*
X147436371Y-101328234D01*
X147436371Y-101328234D02*
X147531609Y-101280615D01*
X147531609Y-101280615D02*
X147769704Y-101280615D01*
X147769704Y-101280615D02*
X147864942Y-101328234D01*
X147864942Y-101328234D02*
X147912561Y-101375853D01*
X147912561Y-101375853D02*
X147960180Y-101471091D01*
X147960180Y-101471091D02*
X147960180Y-101709186D01*
X147960180Y-101709186D02*
X147912561Y-101804424D01*
X147912561Y-101804424D02*
X147864942Y-101852044D01*
X147864942Y-101852044D02*
X147769704Y-101899663D01*
X147769704Y-101899663D02*
X147531609Y-101899663D01*
X147531609Y-101899663D02*
X147436371Y-101852044D01*
X147436371Y-101852044D02*
X147388752Y-101804424D01*
X142983333Y-107949424D02*
X142935714Y-107997044D01*
X142935714Y-107997044D02*
X142792857Y-108044663D01*
X142792857Y-108044663D02*
X142697619Y-108044663D01*
X142697619Y-108044663D02*
X142554762Y-107997044D01*
X142554762Y-107997044D02*
X142459524Y-107901805D01*
X142459524Y-107901805D02*
X142411905Y-107806567D01*
X142411905Y-107806567D02*
X142364286Y-107616091D01*
X142364286Y-107616091D02*
X142364286Y-107473234D01*
X142364286Y-107473234D02*
X142411905Y-107282758D01*
X142411905Y-107282758D02*
X142459524Y-107187520D01*
X142459524Y-107187520D02*
X142554762Y-107092282D01*
X142554762Y-107092282D02*
X142697619Y-107044663D01*
X142697619Y-107044663D02*
X142792857Y-107044663D01*
X142792857Y-107044663D02*
X142935714Y-107092282D01*
X142935714Y-107092282D02*
X142983333Y-107139901D01*
X143935714Y-108044663D02*
X143364286Y-108044663D01*
X143650000Y-108044663D02*
X143650000Y-107044663D01*
X143650000Y-107044663D02*
X143554762Y-107187520D01*
X143554762Y-107187520D02*
X143459524Y-107282758D01*
X143459524Y-107282758D02*
X143364286Y-107330377D01*
X143213333Y-113634663D02*
X142880000Y-113158472D01*
X142641905Y-113634663D02*
X142641905Y-112634663D01*
X142641905Y-112634663D02*
X143022857Y-112634663D01*
X143022857Y-112634663D02*
X143118095Y-112682282D01*
X143118095Y-112682282D02*
X143165714Y-112729901D01*
X143165714Y-112729901D02*
X143213333Y-112825139D01*
X143213333Y-112825139D02*
X143213333Y-112967996D01*
X143213333Y-112967996D02*
X143165714Y-113063234D01*
X143165714Y-113063234D02*
X143118095Y-113110853D01*
X143118095Y-113110853D02*
X143022857Y-113158472D01*
X143022857Y-113158472D02*
X142641905Y-113158472D01*
X144165714Y-113634663D02*
X143594286Y-113634663D01*
X143880000Y-113634663D02*
X143880000Y-112634663D01*
X143880000Y-112634663D02*
X143784762Y-112777520D01*
X143784762Y-112777520D02*
X143689524Y-112872758D01*
X143689524Y-112872758D02*
X143594286Y-112920377D01*
X139546666Y-107044663D02*
X139546666Y-107758948D01*
X139546666Y-107758948D02*
X139499047Y-107901805D01*
X139499047Y-107901805D02*
X139403809Y-107997044D01*
X139403809Y-107997044D02*
X139260952Y-108044663D01*
X139260952Y-108044663D02*
X139165714Y-108044663D01*
X140022857Y-108044663D02*
X140022857Y-107044663D01*
X140022857Y-107044663D02*
X140403809Y-107044663D01*
X140403809Y-107044663D02*
X140499047Y-107092282D01*
X140499047Y-107092282D02*
X140546666Y-107139901D01*
X140546666Y-107139901D02*
X140594285Y-107235139D01*
X140594285Y-107235139D02*
X140594285Y-107377996D01*
X140594285Y-107377996D02*
X140546666Y-107473234D01*
X140546666Y-107473234D02*
X140499047Y-107520853D01*
X140499047Y-107520853D02*
X140403809Y-107568472D01*
X140403809Y-107568472D02*
X140022857Y-107568472D01*
X140975238Y-107139901D02*
X141022857Y-107092282D01*
X141022857Y-107092282D02*
X141118095Y-107044663D01*
X141118095Y-107044663D02*
X141356190Y-107044663D01*
X141356190Y-107044663D02*
X141451428Y-107092282D01*
X141451428Y-107092282D02*
X141499047Y-107139901D01*
X141499047Y-107139901D02*
X141546666Y-107235139D01*
X141546666Y-107235139D02*
X141546666Y-107330377D01*
X141546666Y-107330377D02*
X141499047Y-107473234D01*
X141499047Y-107473234D02*
X140927619Y-108044663D01*
X140927619Y-108044663D02*
X141546666Y-108044663D01*
X147803333Y-110434663D02*
X147470000Y-109958472D01*
X147231905Y-110434663D02*
X147231905Y-109434663D01*
X147231905Y-109434663D02*
X147612857Y-109434663D01*
X147612857Y-109434663D02*
X147708095Y-109482282D01*
X147708095Y-109482282D02*
X147755714Y-109529901D01*
X147755714Y-109529901D02*
X147803333Y-109625139D01*
X147803333Y-109625139D02*
X147803333Y-109767996D01*
X147803333Y-109767996D02*
X147755714Y-109863234D01*
X147755714Y-109863234D02*
X147708095Y-109910853D01*
X147708095Y-109910853D02*
X147612857Y-109958472D01*
X147612857Y-109958472D02*
X147231905Y-109958472D01*
X148136667Y-109434663D02*
X148755714Y-109434663D01*
X148755714Y-109434663D02*
X148422381Y-109815615D01*
X148422381Y-109815615D02*
X148565238Y-109815615D01*
X148565238Y-109815615D02*
X148660476Y-109863234D01*
X148660476Y-109863234D02*
X148708095Y-109910853D01*
X148708095Y-109910853D02*
X148755714Y-110006091D01*
X148755714Y-110006091D02*
X148755714Y-110244186D01*
X148755714Y-110244186D02*
X148708095Y-110339424D01*
X148708095Y-110339424D02*
X148660476Y-110387044D01*
X148660476Y-110387044D02*
X148565238Y-110434663D01*
X148565238Y-110434663D02*
X148279524Y-110434663D01*
X148279524Y-110434663D02*
X148184286Y-110387044D01*
X148184286Y-110387044D02*
X148136667Y-110339424D01*
X137903333Y-110224663D02*
X137570000Y-109748472D01*
X137331905Y-110224663D02*
X137331905Y-109224663D01*
X137331905Y-109224663D02*
X137712857Y-109224663D01*
X137712857Y-109224663D02*
X137808095Y-109272282D01*
X137808095Y-109272282D02*
X137855714Y-109319901D01*
X137855714Y-109319901D02*
X137903333Y-109415139D01*
X137903333Y-109415139D02*
X137903333Y-109557996D01*
X137903333Y-109557996D02*
X137855714Y-109653234D01*
X137855714Y-109653234D02*
X137808095Y-109700853D01*
X137808095Y-109700853D02*
X137712857Y-109748472D01*
X137712857Y-109748472D02*
X137331905Y-109748472D01*
X138284286Y-109319901D02*
X138331905Y-109272282D01*
X138331905Y-109272282D02*
X138427143Y-109224663D01*
X138427143Y-109224663D02*
X138665238Y-109224663D01*
X138665238Y-109224663D02*
X138760476Y-109272282D01*
X138760476Y-109272282D02*
X138808095Y-109319901D01*
X138808095Y-109319901D02*
X138855714Y-109415139D01*
X138855714Y-109415139D02*
X138855714Y-109510377D01*
X138855714Y-109510377D02*
X138808095Y-109653234D01*
X138808095Y-109653234D02*
X138236667Y-110224663D01*
X138236667Y-110224663D02*
X138855714Y-110224663D01*
X141488095Y-102884663D02*
X141488095Y-103694186D01*
X141488095Y-103694186D02*
X141535714Y-103789424D01*
X141535714Y-103789424D02*
X141583333Y-103837044D01*
X141583333Y-103837044D02*
X141678571Y-103884663D01*
X141678571Y-103884663D02*
X141869047Y-103884663D01*
X141869047Y-103884663D02*
X141964285Y-103837044D01*
X141964285Y-103837044D02*
X142011904Y-103789424D01*
X142011904Y-103789424D02*
X142059523Y-103694186D01*
X142059523Y-103694186D02*
X142059523Y-102884663D01*
X143059523Y-103884663D02*
X142488095Y-103884663D01*
X142773809Y-103884663D02*
X142773809Y-102884663D01*
X142773809Y-102884663D02*
X142678571Y-103027520D01*
X142678571Y-103027520D02*
X142583333Y-103122758D01*
X142583333Y-103122758D02*
X142488095Y-103170377D01*
X145156666Y-107044663D02*
X145156666Y-107758948D01*
X145156666Y-107758948D02*
X145109047Y-107901805D01*
X145109047Y-107901805D02*
X145013809Y-107997044D01*
X145013809Y-107997044D02*
X144870952Y-108044663D01*
X144870952Y-108044663D02*
X144775714Y-108044663D01*
X145632857Y-108044663D02*
X145632857Y-107044663D01*
X145632857Y-107044663D02*
X146013809Y-107044663D01*
X146013809Y-107044663D02*
X146109047Y-107092282D01*
X146109047Y-107092282D02*
X146156666Y-107139901D01*
X146156666Y-107139901D02*
X146204285Y-107235139D01*
X146204285Y-107235139D02*
X146204285Y-107377996D01*
X146204285Y-107377996D02*
X146156666Y-107473234D01*
X146156666Y-107473234D02*
X146109047Y-107520853D01*
X146109047Y-107520853D02*
X146013809Y-107568472D01*
X146013809Y-107568472D02*
X145632857Y-107568472D01*
X147156666Y-108044663D02*
X146585238Y-108044663D01*
X146870952Y-108044663D02*
X146870952Y-107044663D01*
X146870952Y-107044663D02*
X146775714Y-107187520D01*
X146775714Y-107187520D02*
X146680476Y-107282758D01*
X146680476Y-107282758D02*
X146585238Y-107330377D01*
D11*
%TO.C,C1*%
X142720000Y-109072164D02*
X142720000Y-109287836D01*
X143440000Y-109072164D02*
X143440000Y-109287836D01*
%TO.C,R1*%
X143460000Y-111316359D02*
X143460000Y-111623641D01*
X142700000Y-111316359D02*
X142700000Y-111623641D01*
%TO.C,JP2*%
X139680000Y-112180000D02*
X139680000Y-109380000D01*
X141680000Y-112180000D02*
X139680000Y-112180000D01*
X139680000Y-109380000D02*
X141680000Y-109380000D01*
X141680000Y-109380000D02*
X141680000Y-112180000D01*
%TO.C,R3*%
X147500000Y-111426359D02*
X147500000Y-111733641D01*
X148260000Y-111426359D02*
X148260000Y-111733641D01*
%TO.C,R2*%
X138460000Y-111326359D02*
X138460000Y-111633641D01*
X137700000Y-111326359D02*
X137700000Y-111633641D01*
%TO.C,U1*%
X141250000Y-104270000D02*
X143250000Y-104270000D01*
X141250000Y-106490000D02*
X143250000Y-106490000D01*
X140710000Y-104410000D02*
X140430000Y-104410000D01*
X140710000Y-104130000D01*
X140710000Y-104410000D01*
G36*
X140710000Y-104410000D02*
G01*
X140430000Y-104410000D01*
X140710000Y-104130000D01*
X140710000Y-104410000D01*
G37*
%TO.C,JP1*%
X146480000Y-109380000D02*
X146480000Y-112180000D01*
X144480000Y-109380000D02*
X146480000Y-109380000D01*
X146480000Y-112180000D02*
X144480000Y-112180000D01*
X144480000Y-112180000D02*
X144480000Y-109380000D01*
%TD*%
M02*
