%TF.GenerationSoftware,KiCad,Pcbnew,8.0.4-8.0.4-0~ubuntu22.04.1*%
%TF.CreationDate,2024-08-06T19:19:49+09:30*%
%TF.ProjectId,apds9306-65_breakout-board,61706473-3933-4303-962d-36355f627265,1.0*%
%TF.SameCoordinates,Original*%
%TF.FileFunction,Copper,L1,Top*%
%TF.FilePolarity,Positive*%
%FSLAX46Y46*%
G04 Gerber Fmt 4.6, Leading zero omitted, Abs format (unit mm)*
G04 Created by KiCad (PCBNEW 8.0.4-8.0.4-0~ubuntu22.04.1) date 2024-08-06 19:19:49*
%MOMM*%
%LPD*%
G01*
G04 APERTURE LIST*
G04 Aperture macros list*
%AMRoundRect*
0 Rectangle with rounded corners*
0 $1 Rounding radius*
0 $2 $3 $4 $5 $6 $7 $8 $9 X,Y pos of 4 corners*
0 Add a 4 corners polygon primitive as box body*
4,1,4,$2,$3,$4,$5,$6,$7,$8,$9,$2,$3,0*
0 Add four circle primitives for the rounded corners*
1,1,$1+$1,$2,$3*
1,1,$1+$1,$4,$5*
1,1,$1+$1,$6,$7*
1,1,$1+$1,$8,$9*
0 Add four rect primitives between the rounded corners*
20,1,$1+$1,$2,$3,$4,$5,0*
20,1,$1+$1,$4,$5,$6,$7,0*
20,1,$1+$1,$6,$7,$8,$9,0*
20,1,$1+$1,$8,$9,$2,$3,0*%
G04 Aperture macros list end*
%TA.AperFunction,EtchedComponent*%
%ADD10C,0.000000*%
%TD*%
%TA.AperFunction,ComponentPad*%
%ADD11O,1.700000X1.700000*%
%TD*%
%TA.AperFunction,ComponentPad*%
%ADD12R,1.700000X1.700000*%
%TD*%
%TA.AperFunction,SMDPad,CuDef*%
%ADD13RoundRect,0.140000X-0.170000X0.140000X-0.170000X-0.140000X0.170000X-0.140000X0.170000X0.140000X0*%
%TD*%
%TA.AperFunction,SMDPad,CuDef*%
%ADD14RoundRect,0.135000X-0.185000X0.135000X-0.185000X-0.135000X0.185000X-0.135000X0.185000X0.135000X0*%
%TD*%
%TA.AperFunction,SMDPad,CuDef*%
%ADD15R,1.500000X1.000000*%
%TD*%
%TA.AperFunction,SMDPad,CuDef*%
%ADD16RoundRect,0.075000X-0.512500X-0.075000X0.512500X-0.075000X0.512500X0.075000X-0.512500X0.075000X0*%
%TD*%
%TA.AperFunction,ViaPad*%
%ADD17C,0.600000*%
%TD*%
%TA.AperFunction,Conductor*%
%ADD18C,0.254000*%
%TD*%
G04 APERTURE END LIST*
D10*
%TA.AperFunction,EtchedComponent*%
%TO.C,JP2*%
G36*
X140980000Y-111030000D02*
G01*
X140380000Y-111030000D01*
X140380000Y-110530000D01*
X140980000Y-110530000D01*
X140980000Y-111030000D01*
G37*
%TD.AperFunction*%
%TA.AperFunction,EtchedComponent*%
%TO.C,JP1*%
G36*
X145780000Y-111030000D02*
G01*
X145180000Y-111030000D01*
X145180000Y-110530000D01*
X145780000Y-110530000D01*
X145780000Y-111030000D01*
G37*
%TD.AperFunction*%
%TD*%
D11*
%TO.P,J1,5,Pin_5*%
%TO.N,/~{INT}*%
X147160000Y-115180000D03*
%TO.P,J1,4,Pin_4*%
%TO.N,/SDA*%
X144620000Y-115180000D03*
%TO.P,J1,3,Pin_3*%
%TO.N,/SCL*%
X142080000Y-115180000D03*
%TO.P,J1,2,Pin_2*%
%TO.N,+3.3V*%
X139540000Y-115180000D03*
D12*
%TO.P,J1,1,Pin_1*%
%TO.N,GND*%
X137000000Y-115180000D03*
%TD*%
D13*
%TO.P,C1,1*%
%TO.N,+3.3V*%
X143080000Y-108700000D03*
%TO.P,C1,2*%
%TO.N,GND*%
X143080000Y-109660000D03*
%TD*%
D14*
%TO.P,R1,1*%
%TO.N,Net-(JP1-A)*%
X143080000Y-110960000D03*
%TO.P,R1,2*%
%TO.N,/SDA*%
X143080000Y-111980000D03*
%TD*%
D15*
%TO.P,JP2,1,A*%
%TO.N,Net-(JP2-A)*%
X140680000Y-111430000D03*
%TO.P,JP2,2,B*%
%TO.N,+3.3V*%
X140680000Y-110130000D03*
%TD*%
D14*
%TO.P,R3,2*%
%TO.N,/~{INT}*%
X147880000Y-112090000D03*
%TO.P,R3,1*%
%TO.N,+3.3V*%
X147880000Y-111070000D03*
%TD*%
%TO.P,R2,1*%
%TO.N,Net-(JP2-A)*%
X138080000Y-110970000D03*
%TO.P,R2,2*%
%TO.N,/SCL*%
X138080000Y-111990000D03*
%TD*%
D16*
%TO.P,U1,1,SCL*%
%TO.N,/SCL*%
X141462500Y-104730000D03*
%TO.P,U1,2,SDA*%
%TO.N,/SDA*%
X141462500Y-105380000D03*
%TO.P,U1,3,VDD*%
%TO.N,+3.3V*%
X141462500Y-106030000D03*
%TO.P,U1,4,INT*%
%TO.N,/~{INT}*%
X143037500Y-106030000D03*
%TO.P,U1,5,NC*%
%TO.N,unconnected-(U1-NC-Pad5)*%
X143037500Y-105380000D03*
%TO.P,U1,6,GND*%
%TO.N,GND*%
X143037500Y-104730000D03*
%TD*%
D15*
%TO.P,JP1,2,B*%
%TO.N,+3.3V*%
X145480000Y-110130000D03*
%TO.P,JP1,1,A*%
%TO.N,Net-(JP1-A)*%
X145480000Y-111430000D03*
%TD*%
D17*
%TO.N,GND*%
X144580000Y-102380000D03*
X139480000Y-102380000D03*
X147580000Y-97480000D03*
X136580000Y-97380000D03*
%TO.N,+3.3V*%
X140480000Y-107580000D03*
%TO.N,GND*%
X143880000Y-109580000D03*
X145680000Y-104780000D03*
%TO.N,+3.3V*%
X136480000Y-109380000D03*
X138280000Y-109380000D03*
%TD*%
D18*
%TO.N,+3.3V*%
X143080000Y-108700000D02*
X141960000Y-107580000D01*
X138680000Y-107180000D02*
X138680000Y-106180000D01*
X141960000Y-107580000D02*
X139080000Y-107580000D01*
X139080000Y-107580000D02*
X138680000Y-107180000D01*
X138680000Y-106180000D02*
X138830000Y-106030000D01*
X138830000Y-106030000D02*
X141462500Y-106030000D01*
X145480000Y-110130000D02*
X145480000Y-108980000D01*
X145480000Y-108980000D02*
X145200000Y-108700000D01*
X145200000Y-108700000D02*
X143080000Y-108700000D01*
X147880000Y-111070000D02*
X147880000Y-110280000D01*
X147880000Y-110280000D02*
X147730000Y-110130000D01*
X147730000Y-110130000D02*
X145480000Y-110130000D01*
%TO.N,/~{INT}*%
X147880000Y-112090000D02*
X148270000Y-112090000D01*
X148270000Y-112090000D02*
X148580000Y-111780000D01*
X148580000Y-111780000D02*
X148580000Y-106880000D01*
X148580000Y-106880000D02*
X147730000Y-106030000D01*
X147730000Y-106030000D02*
X143037500Y-106030000D01*
%TO.N,GND*%
X143800000Y-109660000D02*
X143880000Y-109580000D01*
X143080000Y-109660000D02*
X143800000Y-109660000D01*
X145630000Y-104730000D02*
X145680000Y-104780000D01*
X143037500Y-104730000D02*
X145630000Y-104730000D01*
%TO.N,+3.3V*%
X136480000Y-112180000D02*
X136480000Y-109380000D01*
X139480000Y-115180000D02*
X136480000Y-112180000D01*
X139540000Y-115180000D02*
X139480000Y-115180000D01*
X139030000Y-110130000D02*
X138280000Y-109380000D01*
X140680000Y-110130000D02*
X139030000Y-110130000D01*
%TO.N,/SDA*%
X143080000Y-111980000D02*
X142280000Y-111180000D01*
X142280000Y-111180000D02*
X142280000Y-108980000D01*
X142280000Y-108980000D02*
X141680000Y-108380000D01*
X138080000Y-107980000D02*
X138080000Y-105580000D01*
X141680000Y-108380000D02*
X138480000Y-108380000D01*
X138480000Y-108380000D02*
X138080000Y-107980000D01*
X138080000Y-105580000D02*
X138280000Y-105380000D01*
X138280000Y-105380000D02*
X141462500Y-105380000D01*
%TO.N,/~{INT}*%
X147160000Y-113700000D02*
X147880000Y-112980000D01*
X147160000Y-115180000D02*
X147160000Y-113700000D01*
X147880000Y-112980000D02*
X147880000Y-112090000D01*
%TO.N,/SDA*%
X144620000Y-115180000D02*
X143080000Y-113640000D01*
X143080000Y-113640000D02*
X143080000Y-111980000D01*
%TO.N,Net-(JP1-A)*%
X143080000Y-110960000D02*
X143860000Y-110960000D01*
X143860000Y-110960000D02*
X144330000Y-111430000D01*
X144330000Y-111430000D02*
X145480000Y-111430000D01*
%TO.N,Net-(JP2-A)*%
X140680000Y-111430000D02*
X139130000Y-111430000D01*
X139130000Y-111430000D02*
X138670000Y-110970000D01*
X138670000Y-110970000D02*
X138080000Y-110970000D01*
%TO.N,/SCL*%
X137280000Y-105580000D02*
X138080000Y-104780000D01*
X137280000Y-111580000D02*
X137280000Y-105580000D01*
X138080000Y-104730000D02*
X141462500Y-104730000D01*
X138080000Y-104780000D02*
X138080000Y-104730000D01*
X138080000Y-111990000D02*
X137690000Y-111990000D01*
X137690000Y-111990000D02*
X137280000Y-111580000D01*
X139880000Y-112980000D02*
X138880000Y-112980000D01*
X138080000Y-111990000D02*
X138080000Y-112180000D01*
X138080000Y-112180000D02*
X138880000Y-112980000D01*
X142080000Y-115180000D02*
X139880000Y-112980000D01*
%TD*%
%TA.AperFunction,Conductor*%
%TO.N,GND*%
G36*
X149022539Y-94900185D02*
G01*
X149068294Y-94952989D01*
X149079500Y-95004500D01*
X149079500Y-106192718D01*
X149059815Y-106259757D01*
X149007011Y-106305512D01*
X148937853Y-106315456D01*
X148874297Y-106286431D01*
X148867819Y-106280399D01*
X148130011Y-105542591D01*
X148130007Y-105542588D01*
X148027235Y-105473918D01*
X148027226Y-105473913D01*
X147993785Y-105460062D01*
X147913035Y-105426614D01*
X147913027Y-105426612D01*
X147791807Y-105402500D01*
X147791803Y-105402500D01*
X144249500Y-105402500D01*
X144182461Y-105382815D01*
X144136706Y-105330011D01*
X144125500Y-105278500D01*
X144125500Y-105267286D01*
X144125499Y-105267272D01*
X144114008Y-105179992D01*
X144110687Y-105154764D01*
X144088747Y-105101798D01*
X144081279Y-105032330D01*
X144088748Y-105006892D01*
X144110200Y-104955103D01*
X144120088Y-104880000D01*
X143983582Y-104880000D01*
X143916543Y-104860315D01*
X143908095Y-104854375D01*
X143840328Y-104802375D01*
X143799126Y-104745947D01*
X143794971Y-104676201D01*
X143829184Y-104615281D01*
X143890901Y-104582529D01*
X143915815Y-104580000D01*
X144120088Y-104580000D01*
X144120088Y-104579999D01*
X144110199Y-104504896D01*
X144110198Y-104504891D01*
X144052263Y-104365021D01*
X143960094Y-104244905D01*
X143839978Y-104152736D01*
X143700108Y-104094801D01*
X143700104Y-104094800D01*
X143587697Y-104080000D01*
X143187500Y-104080000D01*
X143187500Y-104605500D01*
X143167815Y-104672539D01*
X143115011Y-104718294D01*
X143063500Y-104729500D01*
X143011500Y-104729500D01*
X142944461Y-104709815D01*
X142898706Y-104657011D01*
X142887500Y-104605500D01*
X142887500Y-104080000D01*
X142487302Y-104080000D01*
X142374895Y-104094800D01*
X142298102Y-104126607D01*
X142228633Y-104134074D01*
X142203200Y-104126606D01*
X142125239Y-104094314D01*
X142125237Y-104094313D01*
X142125236Y-104094313D01*
X142111171Y-104092461D01*
X142012727Y-104079500D01*
X142012720Y-104079500D01*
X140912280Y-104079500D01*
X140912272Y-104079500D01*
X140799764Y-104094313D01*
X140791913Y-104096417D01*
X140791609Y-104095285D01*
X140755334Y-104102500D01*
X138018195Y-104102500D01*
X137896970Y-104126613D01*
X137896960Y-104126616D01*
X137782773Y-104173913D01*
X137782760Y-104173920D01*
X137679992Y-104242588D01*
X137679988Y-104242591D01*
X137592590Y-104329989D01*
X137523914Y-104432771D01*
X137522111Y-104437125D01*
X137495235Y-104477344D01*
X137017478Y-104955103D01*
X136879992Y-105092589D01*
X136817819Y-105154762D01*
X136792589Y-105179992D01*
X136723915Y-105282770D01*
X136713590Y-105307698D01*
X136676615Y-105396962D01*
X136676612Y-105396972D01*
X136661307Y-105473918D01*
X136652500Y-105518192D01*
X136652500Y-108455114D01*
X136632815Y-108522153D01*
X136580011Y-108567908D01*
X136514620Y-108578335D01*
X136490465Y-108575614D01*
X136480000Y-108574435D01*
X136479999Y-108574435D01*
X136479998Y-108574435D01*
X136479996Y-108574435D01*
X136300750Y-108594630D01*
X136300745Y-108594631D01*
X136130476Y-108654211D01*
X135977737Y-108750184D01*
X135850184Y-108877737D01*
X135754211Y-109030476D01*
X135694631Y-109200745D01*
X135694630Y-109200750D01*
X135674435Y-109379996D01*
X135674435Y-109380003D01*
X135694630Y-109559249D01*
X135694631Y-109559254D01*
X135754211Y-109729524D01*
X135833493Y-109855698D01*
X135852500Y-109921671D01*
X135852500Y-112241807D01*
X135876612Y-112363028D01*
X135876614Y-112363035D01*
X135901833Y-112423917D01*
X135923913Y-112477225D01*
X135923920Y-112477238D01*
X135969921Y-112546083D01*
X135969922Y-112546084D01*
X135992590Y-112580010D01*
X135992591Y-112580011D01*
X137213681Y-113801100D01*
X137247166Y-113862423D01*
X137250000Y-113888781D01*
X137250000Y-114746988D01*
X137192993Y-114714075D01*
X137065826Y-114680000D01*
X136934174Y-114680000D01*
X136807007Y-114714075D01*
X136750000Y-114746988D01*
X136750000Y-113830000D01*
X136102155Y-113830000D01*
X136042627Y-113836401D01*
X136042620Y-113836403D01*
X135907913Y-113886645D01*
X135907906Y-113886649D01*
X135792812Y-113972809D01*
X135792809Y-113972812D01*
X135706649Y-114087906D01*
X135706645Y-114087913D01*
X135656403Y-114222620D01*
X135656401Y-114222627D01*
X135650000Y-114282155D01*
X135650000Y-114930000D01*
X136566988Y-114930000D01*
X136534075Y-114987007D01*
X136500000Y-115114174D01*
X136500000Y-115245826D01*
X136534075Y-115372993D01*
X136566988Y-115430000D01*
X135650000Y-115430000D01*
X135650000Y-116077844D01*
X135656401Y-116137372D01*
X135656403Y-116137379D01*
X135706645Y-116272086D01*
X135706649Y-116272093D01*
X135792809Y-116387187D01*
X135792812Y-116387190D01*
X135907906Y-116473350D01*
X135907913Y-116473354D01*
X136042620Y-116523596D01*
X136042627Y-116523598D01*
X136102155Y-116529999D01*
X136102172Y-116530000D01*
X136750000Y-116530000D01*
X136750000Y-115613012D01*
X136807007Y-115645925D01*
X136934174Y-115680000D01*
X137065826Y-115680000D01*
X137192993Y-115645925D01*
X137250000Y-115613012D01*
X137250000Y-116530000D01*
X137897828Y-116530000D01*
X137897844Y-116529999D01*
X137957372Y-116523598D01*
X137957379Y-116523596D01*
X138092086Y-116473354D01*
X138092093Y-116473350D01*
X138207187Y-116387190D01*
X138207190Y-116387187D01*
X138293350Y-116272093D01*
X138293354Y-116272086D01*
X138342422Y-116140529D01*
X138384293Y-116084595D01*
X138449757Y-116060178D01*
X138518030Y-116075030D01*
X138546285Y-116096181D01*
X138668599Y-116218495D01*
X138745135Y-116272086D01*
X138862165Y-116354032D01*
X138862167Y-116354033D01*
X138862170Y-116354035D01*
X139076337Y-116453903D01*
X139304592Y-116515063D01*
X139475319Y-116530000D01*
X139539999Y-116535659D01*
X139540000Y-116535659D01*
X139540001Y-116535659D01*
X139604681Y-116530000D01*
X139775408Y-116515063D01*
X140003663Y-116453903D01*
X140217830Y-116354035D01*
X140411401Y-116218495D01*
X140578495Y-116051401D01*
X140708425Y-115865842D01*
X140763002Y-115822217D01*
X140832500Y-115815023D01*
X140894855Y-115846546D01*
X140911575Y-115865842D01*
X141041500Y-116051395D01*
X141041505Y-116051401D01*
X141208599Y-116218495D01*
X141285135Y-116272086D01*
X141402165Y-116354032D01*
X141402167Y-116354033D01*
X141402170Y-116354035D01*
X141616337Y-116453903D01*
X141844592Y-116515063D01*
X142015319Y-116530000D01*
X142079999Y-116535659D01*
X142080000Y-116535659D01*
X142080001Y-116535659D01*
X142144681Y-116530000D01*
X142315408Y-116515063D01*
X142543663Y-116453903D01*
X142757830Y-116354035D01*
X142951401Y-116218495D01*
X143118495Y-116051401D01*
X143248425Y-115865842D01*
X143303002Y-115822217D01*
X143372500Y-115815023D01*
X143434855Y-115846546D01*
X143451575Y-115865842D01*
X143581500Y-116051395D01*
X143581505Y-116051401D01*
X143748599Y-116218495D01*
X143825135Y-116272086D01*
X143942165Y-116354032D01*
X143942167Y-116354033D01*
X143942170Y-116354035D01*
X144156337Y-116453903D01*
X144384592Y-116515063D01*
X144555319Y-116530000D01*
X144619999Y-116535659D01*
X144620000Y-116535659D01*
X144620001Y-116535659D01*
X144684681Y-116530000D01*
X144855408Y-116515063D01*
X145083663Y-116453903D01*
X145297830Y-116354035D01*
X145491401Y-116218495D01*
X145658495Y-116051401D01*
X145788425Y-115865842D01*
X145843002Y-115822217D01*
X145912500Y-115815023D01*
X145974855Y-115846546D01*
X145991575Y-115865842D01*
X146121500Y-116051395D01*
X146121505Y-116051401D01*
X146288599Y-116218495D01*
X146365135Y-116272086D01*
X146482165Y-116354032D01*
X146482167Y-116354033D01*
X146482170Y-116354035D01*
X146696337Y-116453903D01*
X146924592Y-116515063D01*
X147095319Y-116530000D01*
X147159999Y-116535659D01*
X147160000Y-116535659D01*
X147160001Y-116535659D01*
X147224681Y-116530000D01*
X147395408Y-116515063D01*
X147623663Y-116453903D01*
X147837830Y-116354035D01*
X148031401Y-116218495D01*
X148198495Y-116051401D01*
X148334035Y-115857830D01*
X148433903Y-115643663D01*
X148495063Y-115415408D01*
X148515659Y-115180000D01*
X148495063Y-114944592D01*
X148433903Y-114716337D01*
X148334035Y-114502171D01*
X148328425Y-114494158D01*
X148198494Y-114308597D01*
X148031402Y-114141506D01*
X148031395Y-114141501D01*
X147902197Y-114051035D01*
X147858572Y-113996458D01*
X147851378Y-113926960D01*
X147882901Y-113864605D01*
X147885607Y-113861811D01*
X148367411Y-113380008D01*
X148392294Y-113342768D01*
X148436083Y-113277233D01*
X148462859Y-113212589D01*
X148483386Y-113163034D01*
X148507500Y-113041803D01*
X148507500Y-112918197D01*
X148507500Y-112752274D01*
X148527185Y-112685235D01*
X148562610Y-112649171D01*
X148567229Y-112646084D01*
X148567233Y-112646083D01*
X148670008Y-112577411D01*
X148757411Y-112490008D01*
X148867819Y-112379600D01*
X148929142Y-112346115D01*
X148998834Y-112351099D01*
X149054767Y-112392971D01*
X149079184Y-112458435D01*
X149079500Y-112467281D01*
X149079500Y-118755500D01*
X149059815Y-118822539D01*
X149007011Y-118868294D01*
X148955500Y-118879500D01*
X135204500Y-118879500D01*
X135137461Y-118859815D01*
X135091706Y-118807011D01*
X135080500Y-118755500D01*
X135080500Y-97500000D01*
X139764564Y-97500000D01*
X139784287Y-97800918D01*
X139784288Y-97800930D01*
X139843118Y-98096683D01*
X139843122Y-98096698D01*
X139940053Y-98382247D01*
X139940062Y-98382268D01*
X140073431Y-98652713D01*
X140073435Y-98652720D01*
X140240973Y-98903459D01*
X140439810Y-99130189D01*
X140666540Y-99329026D01*
X140917279Y-99496564D01*
X140917286Y-99496568D01*
X141187731Y-99629937D01*
X141187736Y-99629939D01*
X141187748Y-99629945D01*
X141473309Y-99726880D01*
X141673251Y-99766651D01*
X141769069Y-99785711D01*
X141769070Y-99785711D01*
X141769080Y-99785713D01*
X142070000Y-99805436D01*
X142370920Y-99785713D01*
X142666691Y-99726880D01*
X142952252Y-99629945D01*
X143222718Y-99496566D01*
X143473461Y-99329025D01*
X143700189Y-99130189D01*
X143899025Y-98903461D01*
X144066566Y-98652718D01*
X144199945Y-98382252D01*
X144296880Y-98096691D01*
X144355713Y-97800920D01*
X144375436Y-97500000D01*
X144355713Y-97199080D01*
X144296880Y-96903309D01*
X144199945Y-96617748D01*
X144066566Y-96347282D01*
X143981681Y-96220242D01*
X143899026Y-96096540D01*
X143700189Y-95869810D01*
X143473459Y-95670973D01*
X143222720Y-95503435D01*
X143222713Y-95503431D01*
X142952268Y-95370062D01*
X142952247Y-95370053D01*
X142666698Y-95273122D01*
X142666692Y-95273120D01*
X142666691Y-95273120D01*
X142666689Y-95273119D01*
X142666683Y-95273118D01*
X142370930Y-95214288D01*
X142370921Y-95214287D01*
X142370920Y-95214287D01*
X142070000Y-95194564D01*
X141769080Y-95214287D01*
X141769079Y-95214287D01*
X141769069Y-95214288D01*
X141473316Y-95273118D01*
X141473301Y-95273122D01*
X141187752Y-95370053D01*
X141187731Y-95370062D01*
X140917286Y-95503431D01*
X140917279Y-95503435D01*
X140666540Y-95670973D01*
X140439810Y-95869810D01*
X140240973Y-96096540D01*
X140073435Y-96347279D01*
X140073431Y-96347286D01*
X139940062Y-96617731D01*
X139940053Y-96617752D01*
X139843122Y-96903301D01*
X139843118Y-96903316D01*
X139784288Y-97199069D01*
X139784287Y-97199081D01*
X139764564Y-97500000D01*
X135080500Y-97500000D01*
X135080500Y-95004500D01*
X135100185Y-94937461D01*
X135152989Y-94891706D01*
X135204500Y-94880500D01*
X148955500Y-94880500D01*
X149022539Y-94900185D01*
G37*
%TD.AperFunction*%
%TA.AperFunction,Conductor*%
G36*
X144197091Y-109347185D02*
G01*
X144242846Y-109399989D01*
X144252790Y-109469147D01*
X144246234Y-109494832D01*
X144235909Y-109522514D01*
X144235908Y-109522516D01*
X144229501Y-109582116D01*
X144229500Y-109582135D01*
X144229500Y-110248271D01*
X144209815Y-110315310D01*
X144157011Y-110361065D01*
X144087853Y-110371009D01*
X144058049Y-110362833D01*
X144053780Y-110361065D01*
X144043035Y-110356614D01*
X144043031Y-110356613D01*
X144043027Y-110356612D01*
X143921807Y-110332500D01*
X143921803Y-110332500D01*
X143896021Y-110332500D01*
X143828982Y-110312815D01*
X143783227Y-110260011D01*
X143773283Y-110190853D01*
X143789289Y-110145379D01*
X143842031Y-110056196D01*
X143842031Y-110056195D01*
X143884504Y-109910000D01*
X143031500Y-109910000D01*
X142964461Y-109890315D01*
X142918706Y-109837511D01*
X142907500Y-109786000D01*
X142907500Y-109604500D01*
X142927185Y-109537461D01*
X142979989Y-109491706D01*
X143031500Y-109480500D01*
X143314682Y-109480500D01*
X143314690Y-109480500D01*
X143350993Y-109477643D01*
X143350995Y-109477642D01*
X143350997Y-109477642D01*
X143506389Y-109432496D01*
X143506389Y-109432495D01*
X143506395Y-109432494D01*
X143515233Y-109427267D01*
X143578352Y-109410000D01*
X143884505Y-109410000D01*
X143909246Y-109377048D01*
X143965240Y-109335256D01*
X144008407Y-109327500D01*
X144130052Y-109327500D01*
X144197091Y-109347185D01*
G37*
%TD.AperFunction*%
%TD*%
M02*
